# xmcd CD database file
#
# Track frame offsets:
#	183
#	10130
#	22535
#	32650
#	45325
#	58313
#	70685
#	83260
#	98400
#	109400
#	120328
#	136938
#	146815
#	159418
#	168893
#	182300
#	192630
#	205408
#	217675
#	228288
#
# Disc length: 3198 seconds
#
# Revision: 2
# Processed by: cddbd v1.5.2PL0 Copyright (c) Steve Scherf et al.
# Submitted via: CDex 1.51
#
DISCID=f20c7c14
DTITLE=Various Artist - Country Gold vol 3
DYEAR=1993
DGENRE=Country
TTITLE0=Eddy Arnold - What's he doing in my world
TTITLE1=Dave and Sugar - The door is always open
TTITLE2=Roger Miller - When two worlds collide
TTITLE3=Porter wagoner - Dolly Parton - Please don't stop loving me
TTITLE4=The Browns - The three bells
TTITLE5=Dottie West - Don Gibson - Rings of gold
TTITLE6=Jim Reeves - Blue side of lonesome
TTITLE7=Bobby Bare - (Margie's at) The Lincoln Park Inn
TTITLE8=Charlie Rich - There won't be anymore
TTITLE9=Waylon Jennings - This time
TTITLE10=Ronnie Milsap - It was almost like a song
TTITLE11=Jim Reeves - Oh how I miss you tonight
TTITLE12=Gary Stewart - Sh'e acting single (I'm drinking doubles)
TTITLE13=Dottie West - Country sunshine
TTITLE14=Dolly Parton - Here you come again
TTITLE15=Jerry Reed - When you're hot you're hot
TTITLE16=Johnny Russell - Red necks, white socks and blue ribbon beer
TTITLE17=Dickey Lee - Never ending song of love
TTITLE18=Nat Stuckey - Connie Smith - Young love
TTITLE19=Porter Wagoner - Misery loves company
EXTD=YEAR: 1993
EXTT0=
EXTT1=
EXTT2=
EXTT3=
EXTT4=
EXTT5=
EXTT6=
EXTT7=
EXTT8=
EXTT9=
EXTT10=
EXTT11=
EXTT12=
EXTT13=
EXTT14=
EXTT15=
EXTT16=
EXTT17=
EXTT18=
EXTT19=
PLAYORDER=
